PathFileType	4	(X/Y/Z)	C:/Users/beibeiliu/ov580/test_trc/User2\sequence.32_training_dense_right.trc
DataRate	CameraRate	NumFrames	NumMarkers	Units	OrigDataRate	OrigDataStartFrame	OrigNumFrames
120	120	8	19	mm	120	248	330
Frame#	Time	ThumbCMC			ThumbMCP			ThumbIP			ThumbTip			IndexMCP			IndexPIP			IndexTip			MiddleMCP			MiddlePIP			MiddleTip			RingMCP			RingPIP			RingTip			PinkyMCP			PinkyPIP			PinkyTip			BackHand1			BackHand2			BackHand3	
		X0	Y0	Z0	X1	Y1	Z1	X2	Y2	Z2	X3	Y3	Z3	X4	Y4	Z4	X5	Y5	Z5	X6	Y6	Z6	X7	Y7	Z7	X8	Y8	Z8	X9	Y9	Z9	X10	Y10	Z10	X11	Y11	Z11	X12	Y12	Z12	X13	Y13	Z13	X14	Y14	Z14	X15	Y15	Z15	X16	Y16	Z16	X17	Y17	Z17	X18	Y18	Z18	
247	2.05833	36.6165	-22.1974	72.9399	11.7926	-32.3064	47.7538	-5.96621	-40.6336	19.7951	-8.00905	-48.9102	-8.18091	51.3888	17.42	1.58878	41.0927	18.2795	-32.024	23.1159	-5.61997	-49.3937	73.9947	4.67912	-17.1113	61.0877	-7.51852	-50.3421	38.0261	-36.6288	-53.118	76.5587	-32.1634	-24.9796	58.1138	-56.3021	-26.2506	50.8217	-61.5401	9.54014	87.4685	-56.6028	-13.4431	59.6463	-70.4071	-4.41829	60.2309	-64.232	27.8864	105.008	-21.8741	37.787	108.271	-25.776	69.8883	76.8116	-1.81376	61.8213	
248	2.06667	37.7915	-21.7285	73.3373	12.8384	-29.6829	49.9253	-5.22294	-34.6196	17.6276	-6.25822	-42.6109	-10.591	51.6844	23.564	3.58734	44.5041	26.0982	-27.199	27.9362	3.37804	-46.6792	77.0222	10.8785	-17.1382	61.5007	2.07405	-47.9861	39.7195	-28.9126	-52.1705	76.7884	-22.6541	-20.2428	57.3161	-43.6818	-28.7188	50.5125	-54.9232	8.4108	89.5634	-46.9494	-12.5803	62.1348	-64.1633	-7.5997	60.3811	-59.8201	27.369	104.544	-15.728	39.1942	113.292	-24.6697	71.4703	77.603	-2.27485	63.503	
249	2.075	40.4085	-19.8272	74.8028	13.3656	-25.2694	46.1725	-3.03678	-30.4005	18.7688	-3.2754	-36.2887	-12.7148	53.9162	29.8548	5.26118	42.4061	34.5056	-23.8216	28.8074	11.6071	-43.6568	78.4004	18.3475	-14.1329	63.9072	11.8449	-45.0916	41.3436	-23.2159	-51.2922	76.4848	-16.0189	-22.1146	58.0024	-39.3787	-27.6827	50.6031	-50.4735	6.94999	87.7692	-37.6611	-12.9798	65.4919	-60.7651	-10.6364	61.1153	-53.7988	24.1057	102.479	-9.98083	41.2726	110.564	-22.6276	74.8658	81.1189	0.329788	67.0476	
250	2.08333	36.9341	-15.2675	72.8579	11.2213	-23.3723	50.3881	-6.73575	-25.2035	18.6922	-1.99702	-30.5961	-9.37369	51.0657	37.4685	9.83257	45.1687	41.5862	-18.4306	27.1011	21.5346	-38.8519	77.1219	23.8157	-7.03735	65.7436	17.2819	-42.9382	42.6345	-14.0847	-48.492	81.7136	-10.0711	-16.4234	60.9207	-31.8622	-28.4625	51.7446	-46.3703	6.92582	90.84	-31.8656	-12.0336	63.8074	-52.7866	-11.5685	61.229	-51.4461	21.0002	103.376	-7.02942	45.4696	108.211	-18.9075	74.1925	76.256	5.3427	68.152	
251	2.09167	36.1242	-12.0354	76.6143	15.0419	-19.7896	51.6363	-3.42032	-21.5054	21.9699	-2.18392	-22.5242	-10.3689	51.6704	40.3273	18.46	39.7186	50.0893	-14.3213	25.9895	24.9218	-37.2262	75.7648	32.4391	-1.40322	64.3063	26.663	-38.7282	41.5773	-2.00963	-46.8119	79.0518	-0.659965	-14.8528	61.4122	-24.1967	-27.9765	51.6359	-38.1772	6.30632	92.6827	-24.6336	-12.0848	64.5432	-43.68	-12.2153	58.6611	-46.4779	20.3258	103.73	-0.841184	45.3725	111.241	-17.9059	73.9006	77.3648	7.50282	70.8171	
252	2.1	36.9431	-11.0953	77.7841	13.1207	-14.0035	50.0288	-3.76794	-15.8918	21.0975	-1.00755	-19.1709	-5.65093	57.0395	44.7986	20.5175	43.3614	55.6481	-10.3283	24.0561	34.1448	-32.082	78.0035	38.0367	1.5724	69.1049	36.0154	-33.6644	41.5331	4.7639	-43.3427	79.4401	5.55038	-11.8485	60.7715	-16.2316	-26.2202	51.649	-32.828	7.60283	90.1171	-14.1924	-8.93846	66.7266	-37.3841	-14.5449	61.0095	-44.572	17.5437	106.938	0.496391	48.1885	112.908	-16.1647	77.0938	80.4579	9.10531	74.4429	
253	2.10833	37.0769	-6.74643	78.4197	16.3726	-12.9548	54.4519	-4.38768	-9.14882	20.2408	-3.14592	-9.62006	-7.63952	53.4796	52.0814	27.0499	42.6557	63.4081	-3.48516	26.3207	45.3032	-25.1141	76.7301	45.0863	7.46053	67.8851	43.6513	-31.2349	42.1921	16.3318	-42.7977	80.6347	12.678	-10.4019	60.5745	-5.52646	-23.1373	50.6527	-25.5115	7.67084	93.2483	-8.86174	-7.05081	67.7217	-26.1356	-15.641	60.0549	-38.5471	15.5727	104.837	3.87386	49.4397	110.213	-10.2179	81.5386	80.7973	12.11	78.8141	
254	2.11667	39.7882	-5.75974	82.6251	17.8583	-7.52987	54.3226	0.622344	-3.21238	24.2764	3.94835	-1.96152	-4.36591	57.0689	59.6367	29.6193	47.5076	69.7547	3.49361	24.6897	50.6974	-21.1378	78.0347	52.0946	14.1051	68.4107	55.259	-23.918	43.8161	26.2098	-39.135	79.8474	21.8223	-5.72695	58.2216	3.12951	-20.3148	50.7991	-18.2853	10.2279	94.5968	0.492572	-5.39783	64.2739	-15.8511	-11.2806	61.1913	-28.5121	15.4773	107.716	7.42116	54.9422	109.238	-5.40961	82.6807	78.7946	15.4519	84.2757	
